<svg width="2160" height="562" viewBox="0 0 2160 562" fill="none" xmlns="http://www.w3.org/2000/svg">
<path d="M2135.48 499.556L2160 562H2090.9L1975.04 282.272L1925.5 319.091L1923.26 320.757L1921.44 318.64L1878.15 268.346L1756.53 562H1123.47L1007.61 282.272L958.074 319.091L955.833 320.757L954.011 318.64L910.724 268.347L789.103 562H0V499.556H744.521L956.285 0L1168.05 499.556H1711.95L1923.71 0L2135.48 499.556ZM160.698 2.83789C188.798 2.83793 213.589 7.77194 235.069 17.6387C256.685 27.5054 273.707 41.0892 286.136 58.3896C298.565 75.555 305.049 95.2884 305.59 117.59H245.201C243.04 98.3972 234.123 83.5298 218.452 72.9873C202.781 62.3096 183.056 56.9707 159.279 56.9707C142.257 56.9707 127.531 59.6737 115.103 65.0801C102.674 70.3514 93.014 77.6505 86.124 86.9766C79.3694 96.1674 75.9922 106.643 75.9922 118.401C75.9922 128.268 78.2887 136.783 82.8818 143.946C87.6102 151.11 93.7578 157.124 101.323 161.99C109.024 166.721 117.265 170.708 126.046 173.952C134.827 177.061 143.27 179.629 151.376 181.656L191.905 192.199C205.145 195.443 218.722 199.835 232.637 205.377C246.552 210.919 259.454 218.218 271.343 227.273C283.231 236.329 292.823 247.548 300.118 260.929C307.548 274.31 311.264 290.326 311.264 308.979C311.264 332.496 305.184 353.379 293.025 371.626C281.002 389.873 263.506 404.267 240.54 414.81C217.709 425.352 190.081 430.623 157.658 430.623C126.586 430.623 99.7012 425.69 77.0049 415.823C54.3088 405.957 36.5441 391.967 23.71 373.855C10.8758 355.609 3.78263 333.983 2.43164 308.979H65.252C66.4679 323.981 71.3317 336.483 79.8428 346.485C88.489 356.352 99.4995 363.718 112.874 368.584C126.384 373.315 141.176 375.681 157.253 375.681C174.951 375.681 190.69 372.91 204.47 367.368C218.385 361.691 229.327 353.851 237.298 343.85C245.269 333.713 249.254 321.886 249.254 308.37C249.254 296.07 245.742 286 238.717 278.161C231.827 270.322 222.437 263.834 210.549 258.698C198.795 253.562 185.489 249.034 170.628 245.114L121.587 231.733C88.3534 222.678 62.0095 209.365 42.5557 191.794C23.2369 174.223 13.5772 150.975 13.5771 122.051C13.5771 98.1273 20.0619 77.2446 33.0312 59.4033C46.0006 41.5621 63.5629 27.7076 85.7188 17.8408C107.875 7.83889 132.868 2.83789 160.698 2.83789ZM559.353 2.83789C581.373 2.83789 601.908 6.0146 620.957 12.3672C640.141 18.5846 657.366 27.7759 672.632 39.9404C687.898 51.9697 700.529 66.7021 710.526 84.1377C720.524 101.438 727.278 121.239 730.791 143.541H667.565C665.134 130.025 660.608 118.131 653.988 107.858C647.369 97.5863 639.263 88.8686 629.671 81.7051C620.079 74.5416 609.339 69.1347 597.45 65.4854C585.697 61.836 573.2 60.0118 559.961 60.0117C536.049 60.0117 514.635 66.0263 495.722 78.0557C476.943 90.085 462.082 107.723 451.14 130.971C440.332 154.218 434.928 182.603 434.928 216.123C434.928 249.913 440.332 278.432 451.14 301.68C462.083 324.927 477.011 342.498 495.925 354.393C514.838 366.287 536.116 372.233 559.758 372.233C572.862 372.233 585.291 370.477 597.045 366.963C608.933 363.314 619.674 357.975 629.266 350.946C638.858 343.918 646.963 335.334 653.583 325.197C660.338 314.925 664.999 303.166 667.565 289.921L730.791 290.123C727.414 310.532 720.861 329.32 711.134 346.485C701.542 363.516 689.181 378.249 674.05 390.684C659.054 402.983 641.897 412.512 622.578 419.27C603.259 426.028 582.184 429.407 559.353 429.407C523.417 429.407 491.399 420.892 463.299 403.861C435.199 386.696 413.043 362.164 396.831 330.267C380.755 298.369 372.716 260.321 372.716 216.123C372.716 171.79 380.822 133.742 397.033 101.979C413.245 70.0816 435.401 45.6172 463.501 28.5869C491.601 11.4215 523.552 2.83791 559.353 2.83789ZM1341.11 8.51465C1381.77 8.51471 1416.7 16.8274 1445.88 33.4521C1475.06 49.9417 1497.42 73.6626 1512.95 104.614C1528.62 135.431 1536.46 172.398 1536.46 215.515C1536.46 258.766 1528.56 295.935 1512.75 327.022C1497.08 358.109 1474.38 382.033 1444.66 398.793C1414.94 415.418 1379 423.73 1336.85 423.73H1202.5V8.51465H1341.11ZM1676.94 423.73H1614.33V8.51465H1676.94V423.73ZM1265.12 368.99H1333.41C1365.02 368.99 1391.3 363.043 1412.24 351.148C1433.18 339.119 1448.85 321.751 1459.25 299.044C1469.65 276.202 1474.86 248.359 1474.86 215.515C1474.86 182.941 1469.65 155.3 1459.25 132.593C1448.98 109.886 1433.65 92.6525 1413.25 80.8936C1392.85 69.1345 1367.52 63.2549 1337.26 63.2549H1265.12V368.99Z" fill="#1E1E1E"/>
</svg>
